# File created by Blade
# Date/Time:  Thu Sep 25 17:14:50 2014
# Frame Rate: 120.000 fps
#------------------------------------------------------
:FULLY-SPECIFIED
:DEGREES
455
root 46.865189 32.447810 -3.026728 190.151308 -75.901044 -172.955306
Spine -9.992468 11.301858 0.235789
Head 10.373534 -3.558549 2.771506
LeftShoulder -12.467622 13.403942 40.204235
LeftArm 106.612762 -72.020938 -59.688260
LeftForeArm -36.906813 0.000000 10.678203
LeftHand -17.171004 -0.000000 -8.606447
LeftHandThumb1 -26.253704 0.000000 33.147579
RightShoulder -75.064349 66.939473 -135.334913
RightArm 3.809169 11.553698 49.413097
RightForeArm -9.769157 -0.000000 44.057546
RightHand -9.847386 0.000000 -7.548014
RightHandThumb1 -24.326973 -0.000000 -32.862282
LeftUpLeg -57.917862 13.033965 -10.292230
LeftLeg 9.617473 -0.000000 -0.000000
LeftFoot 40.869489 25.611679 -15.843149
LeftToeBase 29.559544 -0.000000 -0.000000
RightUpLeg 1.396735 -9.353073 1.695633
RightLeg -0.899166 -0.000000 0.000000
RightFoot -16.085076 5.767484 -0.936832
RightToeBase -3.972411 -0.000000 0.000000
456
root 46.674998 32.403700 -3.018571 190.285970 -75.790122 -172.748778
Spine -9.935448 11.270097 0.078355
Head 10.202360 -3.465070 2.735207
LeftShoulder -12.338428 13.348713 40.222943
LeftArm 106.935322 -71.897761 -60.101744
LeftForeArm -37.001311 0.000000 10.629380
LeftHand -17.282170 -0.000000 -8.442512
LeftHandThumb1 -26.253704 0.000000 33.147579
RightShoulder -75.386965 66.859995 -135.647230
RightArm 3.768263 11.355878 49.375076
RightForeArm -9.817403 -0.000000 43.885959
RightHand -9.824071 0.000000 -7.699887
RightHandThumb1 -24.326973 -0.000000 -32.862282
LeftUpLeg -58.156545 12.913223 -10.163676
LeftLeg 10.204061 -0.000000 -0.000000
LeftFoot 40.595966 25.654328 -15.906175
LeftToeBase 28.747642 -0.000000 -0.000000
RightUpLeg 1.420879 -9.297830 1.631719
RightLeg -0.966437 -0.000000 0.000000
RightFoot -16.134097 5.865926 -0.723490
RightToeBase -4.237220 -0.000000 0.000000
457
root 46.482821 32.358259 -3.010761 190.352346 -75.689067 -172.429426
Spine -9.933371 11.225863 -0.084184
Head 9.981492 -3.319360 2.863932
LeftShoulder -12.199450 13.353489 40.279926
LeftArm 107.255290 -71.799533 -60.525404
LeftForeArm -37.186158 -0.000000 10.586235
LeftHand -17.264312 0.000000 -8.728293
LeftHandThumb1 -26.253704 0.000000 33.147579
RightShoulder -75.503457 66.841447 -135.784576
RightArm 3.643755 11.286158 49.289727
RightForeArm -9.710758 -0.000000 43.789362
RightHand -9.788445 -0.000000 -7.832286
RightHandThumb1 -24.326973 -0.000000 -32.862282
LeftUpLeg -58.453451 12.782119 -10.026557
LeftLeg 10.817673 -0.000000 -0.000000
LeftFoot 40.424487 25.611641 -15.821435
LeftToeBase 27.855147 -0.000000 -0.000000
RightUpLeg 1.410852 -9.216351 1.613392
RightLeg -1.067819 -0.000000 0.000000
RightFoot -16.123481 5.756819 -0.664536
RightToeBase -4.081344 -0.000000 0.000000
458
root 46.286806 32.312035 -3.005018 190.242365 -75.603451 -171.957873
Spine -9.858155 11.145128 -0.143891
Head 9.725227 -3.094137 2.831423
LeftShoulder -12.066481 13.305627 40.252383
LeftArm 106.783415 -71.787033 -60.102993
LeftForeArm -37.430036 -0.000000 10.534389
LeftHand -17.477879 0.000000 -8.730334
LeftHandThumb1 -26.253704 0.000000 33.147579
RightShoulder -74.856621 66.711816 -135.039615
RightArm 3.991229 11.567725 49.359059
RightForeArm -9.771828 -0.000000 43.607248
RightHand -9.832029 -0.000000 -7.860067
RightHandThumb1 -24.326973 -0.000000 -32.862282
LeftUpLeg -58.781920 12.644856 -9.834702
LeftLeg 11.632611 -0.000000 -0.000000
LeftFoot 40.097857 25.433964 -15.777718
LeftToeBase 26.341527 -0.000000 -0.000000
RightUpLeg 1.438572 -9.087841 1.614982
RightLeg -1.104077 -0.000000 0.000000
RightFoot -16.200034 5.837116 -0.412772
RightToeBase -4.067341 -0.000000 0.000000
459
root 46.085799 32.265511 -2.999106 190.018957 -75.532723 -171.359008
Spine -9.785654 11.050399 -0.194463
Head 9.503137 -2.938343 2.895454
LeftShoulder -11.977378 13.364792 40.189482
LeftArm 107.018183 -71.757152 -60.305413
LeftForeArm -37.414539 -0.000000 10.404359
LeftHand -17.629061 -0.000000 -8.629141
LeftHandThumb1 -26.253704 0.000000 33.147579
RightShoulder -75.268364 66.735414 -135.501292
RightArm 3.811294 11.509889 49.281388
RightForeArm -9.699090 -0.000000 43.503757
RightHand -9.796418 -0.000000 -7.949614
RightHandThumb1 -24.326973 -0.000000 -32.862282
LeftUpLeg -59.169618 12.507903 -9.622340
LeftLeg 12.622843 -0.000000 -0.000000
LeftFoot 39.664625 25.256778 -15.832117
LeftToeBase 23.238204 -0.000000 -0.000000
RightUpLeg 1.453187 -9.026601 1.661069
RightLeg -1.139223 -0.000000 0.000000
RightFoot -16.203036 5.845026 -0.272781
RightToeBase -4.845324 -0.000000 0.000000
460
root 45.877300 32.215688 -2.982266 190.225565 -75.472337 -171.181485
Spine -9.721083 10.977264 -0.379128
Head 9.281000 -2.695562 3.026874
LeftShoulder -11.829527 13.242763 40.205929
LeftArm 106.484616 -71.696109 -59.792216
LeftForeArm -37.585538 0.000000 10.311204
LeftHand -17.617782 0.000000 -8.528217
LeftHandThumb1 -26.253704 0.000000 33.147579
RightShoulder -75.967834 66.710329 -136.325498
RightArm 3.387004 11.565915 49.144838
RightForeArm -10.834725 -0.000000 43.549740
RightHand -10.195469 -0.000000 -6.571117
RightHandThumb1 -24.326973 -0.000000 -32.862282
LeftUpLeg -59.635986 12.309512 -9.513379
LeftLeg 13.901799 -0.000000 -0.000000
LeftFoot 39.214795 25.026487 -15.792462
LeftToeBase 21.104617 -0.000000 -0.000000
RightUpLeg 1.455406 -9.004085 1.578754
RightLeg -1.179434 -0.000000 0.000000
RightFoot -16.236301 5.897308 -0.055038
RightToeBase -5.132978 -0.000000 0.000000
461
root 45.672313 32.163264 -2.974754 190.232824 -75.398731 -170.781036
Spine -9.634736 10.873825 -0.541969
Head 8.969334 -2.527224 3.132529
LeftShoulder -11.773079 13.218597 40.242829
LeftArm 106.188076 -71.612037 -59.544545
LeftForeArm -37.549793 -0.000000 10.209919
LeftHand -17.640252 -0.000000 -8.351322
LeftHandThumb1 -26.253704 0.000000 33.147579
RightShoulder -77.986840 66.628981 -138.532251
RightArm 2.677910 10.567463 49.004605
RightForeArm -10.349372 -0.000000 43.174972
RightHand -9.884796 -0.000000 -6.869264
RightHandThumb1 -24.326973 -0.000000 -32.862282
LeftUpLeg -60.243431 12.204990 -9.421740
LeftLeg 15.437466 -0.000000 -0.000000
LeftFoot 38.727551 24.709163 -15.866131
LeftToeBase 19.564805 -0.000000 -0.000000
RightUpLeg 1.441384 -8.945959 1.565555
RightLeg -1.224735 -0.000000 0.000000
RightFoot -16.270267 5.945388 0.126404
RightToeBase -5.322873 -0.000000 0.000000
462
root 45.463060 32.109897 -2.970669 190.024201 -75.338391 -170.169325
Spine -9.510087 10.776689 -0.613892
Head 8.628440 -2.398182 3.134020
LeftShoulder -11.733949 13.305761 40.216942
LeftArm 106.246609 -71.555924 -59.656320
LeftForeArm -37.707275 -0.000000 10.112186
LeftHand -17.768146 -0.000000 -8.070006
LeftHandThumb1 -26.253704 0.000000 33.147579
RightShoulder -78.379515 66.590309 -138.966169
RightArm 2.545377 10.504062 48.919670
RightForeArm -10.462139 -0.000000 42.972784
RightHand -9.748769 0.000000 -6.954987
RightHandThumb1 -24.326973 -0.000000 -32.862282
LeftUpLeg -60.909268 12.109017 -9.284529
LeftLeg 17.198797 -0.000000 -0.000000
LeftFoot 38.066834 24.434633 -16.286336
LeftToeBase 17.921901 -0.000000 -0.000000
RightUpLeg 1.425461 -8.891974 1.613480
RightLeg -1.238510 -0.000000 0.000000
RightFoot -16.283637 5.990769 0.337252
RightToeBase -4.949121 -0.000000 0.000000
463
root 45.244325 32.051789 -2.967649 189.981432 -75.300114 -169.701804
Spine -9.451092 10.700668 -0.785674
Head 8.360815 -2.262319 3.199234
LeftShoulder -11.656283 13.273262 40.313929
LeftArm 106.127005 -71.382183 -59.689016
LeftForeArm -38.005094 -0.000000 10.079758
LeftHand -17.944256 -0.000000 -7.942438
LeftHandThumb1 -26.253704 0.000000 33.147579
RightShoulder -78.385587 66.547632 -138.951528
RightArm 2.486027 10.394770 48.768265
RightForeArm -10.523457 -0.000000 42.763606
RightHand -9.746171 -0.000000 -6.980614
RightHandThumb1 -24.326973 -0.000000 -32.862282
LeftUpLeg -61.638599 12.029284 -9.237925
LeftLeg 19.139501 -0.000000 -0.000000
LeftFoot 37.436726 24.021192 -16.735670
LeftToeBase 16.334212 -0.000000 -0.000000
RightUpLeg 1.411544 -8.898065 1.631524
RightLeg -1.252489 -0.000000 0.000000
RightFoot -16.328221 6.003579 0.478472
RightToeBase -5.757590 -0.000000 0.000000
464
root 45.024562 31.994014 -2.959434 190.062961 -75.232834 -169.356180
Spine -9.346399 10.649820 -1.012539
Head 7.877754 -2.238487 3.378457
LeftShoulder -11.611336 13.428036 40.298067
LeftArm 106.741011 -71.342407 -60.319418
LeftForeArm -38.462621 -0.000000 9.951753
LeftHand -17.892610 -0.000000 -8.052813
LeftHandThumb1 -26.253704 0.000000 33.147579
RightShoulder -78.717779 66.506970 -139.294290
RightArm 2.282571 10.422869 48.653384
RightForeArm -10.678512 0.000000 42.624484
RightHand -9.791994 -0.000000 -7.129613
RightHandThumb1 -24.326973 -0.000000 -32.862282
LeftUpLeg -62.407088 12.000781 -9.315907
LeftLeg 21.113875 -0.000000 -0.000000
LeftFoot 37.053684 23.545086 -16.715121
LeftToeBase 14.901626 -0.000000 -0.000000
RightUpLeg 1.384046 -8.832638 1.592160
RightLeg -1.266081 -0.000000 0.000000
RightFoot -16.357033 6.063227 0.621355
RightToeBase -6.121870 -0.000000 0.000000
465
root 44.799394 31.934208 -2.948885 190.198192 -75.148541 -169.065892
Spine -9.234526 10.549927 -1.224909
Head 7.542429 -2.085997 3.435204
LeftShoulder -11.604229 12.969598 40.466831
LeftArm 105.579987 -70.860834 -59.425058
LeftForeArm -38.821328 -0.000000 9.881104
LeftHand -17.983152 -0.000000 -7.839811
LeftHandThumb1 -26.253704 0.000000 33.147579
RightShoulder -79.287909 66.528784 -139.972435
RightArm 1.941452 10.325839 48.524432
RightForeArm -10.294084 -0.000000 42.477524
RightHand -9.656862 -0.000000 -7.478960
RightHandThumb1 -24.326973 -0.000000 -32.862282
LeftUpLeg -63.136600 11.940120 -9.363321
LeftLeg 23.044776 -0.000000 -0.000000
LeftFoot 36.658182 23.216510 -16.759863
LeftToeBase 13.829839 -0.000000 -0.000000
RightUpLeg 1.380591 -8.648323 1.531606
RightLeg -1.300046 -0.000000 0.000000
RightFoot -16.398984 6.006261 0.713407
RightToeBase -6.356353 -0.000000 0.000000
466
root 44.569005 31.876897 -2.937102 190.302993 -75.048778 -168.699293
Spine -9.149317 10.549549 -1.475536
Head 7.158173 -1.982702 3.576731
LeftShoulder -11.577515 13.039855 40.451883
LeftArm 105.669184 -70.789511 -59.537482
LeftForeArm -39.375847 -0.000000 9.757677
LeftHand -17.925050 -0.000000 -8.002360
LeftHandThumb1 -26.253704 0.000000 33.147579
RightShoulder -79.521043 66.490911 -140.239879
RightArm 1.686170 10.398871 48.413321
RightForeArm -10.384382 -0.000000 42.371471
RightHand -9.821432 -0.000000 -7.155078
RightHandThumb1 -24.326973 -0.000000 -32.862282
LeftUpLeg -63.899990 11.908286 -9.436574
LeftLeg 25.044880 -0.000000 -0.000000
LeftFoot 35.973751 22.595690 -17.032681
LeftToeBase 7.798316 -0.000000 -0.000000
RightUpLeg 1.357412 -8.505012 1.477966
RightLeg -1.378094 -0.000000 0.000000
RightFoot -16.331707 6.054996 0.741260
RightToeBase -6.834946 -0.000000 0.000000
